<svg width="442" height="503" viewBox="0 0 442 503" fill="none" xmlns="http://www.w3.org/2000/svg">
<path d="M284.153 24.6587C285.629 12.7607 296.471 4.3124 308.369 5.78883L320.865 7.33941C332.763 8.81584 341.211 19.6579 339.735 31.5559L297.246 373.952C295.77 385.85 284.928 394.299 273.03 392.822L260.534 391.272C248.636 389.795 240.188 378.953 241.665 367.055L284.153 24.6587Z" fill="url(#paint0_linear_99_9)"/>
<path d="M288.91 9.97475C295.392 -0.111286 308.822 -3.03309 318.908 3.44868L329.501 10.256C339.587 16.7378 342.509 30.1686 336.027 40.2547L50.566 484.45C44.0843 494.536 30.6534 497.458 20.5674 490.976L9.97478 484.169C-0.111256 477.687 -3.0331 464.256 3.44867 454.17L288.91 9.97475Z" fill="#BAD341"/>
<path d="M379.421 155.232C386.062 145.25 399.537 142.542 409.519 149.184L420.002 156.158C429.984 162.8 432.692 176.275 426.051 186.257L291.331 388.738C284.69 398.72 271.214 401.428 261.233 394.787L250.75 387.812C240.768 381.171 238.06 367.695 244.701 357.713L379.421 155.232Z" fill="url(#paint1_linear_99_9)"/>
<path d="M376.637 167.139C376.258 155.155 385.665 145.134 397.649 144.755L410.234 144.357C422.217 143.978 432.239 153.385 432.618 165.368L440.304 408.45C440.683 420.434 431.276 430.455 419.293 430.834L406.708 431.232C394.724 431.611 384.703 422.204 384.324 410.221L376.637 167.139Z" fill="#BAD341"/>
<path d="M80.2095 488.564V450.359H86.2703L101.314 473.79H98.2297L113.219 450.359H119.334V488.564H110.838V464.699L112.354 465.078L102.559 480.338H96.9309L87.1903 465.078L88.6514 464.699V488.564H80.2095ZM150.85 488.564L166.003 450.359H173.687L188.677 488.564H179.694L168.221 456.853H171.306L159.671 488.564H150.85ZM159.455 481.637V474.71H180.289V481.637H159.455ZM226.27 472.816V466.539H234.333C236.029 466.539 237.327 466.106 238.229 465.24C239.167 464.375 239.636 463.202 239.636 461.723C239.636 460.352 239.185 459.216 238.283 458.314C237.382 457.412 236.083 456.961 234.387 456.961H226.27V450.359H235.361C237.887 450.359 240.105 450.846 242.017 451.82C243.929 452.758 245.427 454.075 246.509 455.77C247.591 457.466 248.132 459.414 248.132 461.615C248.132 463.851 247.591 465.818 246.509 467.513C245.427 469.173 243.911 470.471 241.963 471.409C240.015 472.347 237.724 472.816 235.091 472.816H226.27ZM219.776 488.564V450.359H228.272V488.564H219.776ZM240.556 488.564L228.651 472.113L236.444 470.002L250.622 488.564H240.556ZM287.131 488.564V481.096H296.601C298.91 481.096 300.93 480.645 302.662 479.743C304.394 478.805 305.728 477.452 306.666 475.684C307.604 473.917 308.073 471.824 308.073 469.407C308.073 466.99 307.586 464.916 306.612 463.184C305.674 461.452 304.339 460.118 302.608 459.18C300.912 458.242 298.91 457.773 296.601 457.773H286.86V450.359H296.709C299.595 450.359 302.247 450.828 304.664 451.766C307.117 452.668 309.246 453.985 311.05 455.716C312.89 457.412 314.297 459.432 315.271 461.777C316.281 464.086 316.786 466.647 316.786 469.461C316.786 472.239 316.281 474.801 315.271 477.146C314.297 479.491 312.908 481.511 311.104 483.206C309.3 484.902 307.171 486.219 304.718 487.157C302.301 488.095 299.668 488.564 296.818 488.564H287.131ZM281.395 488.564V450.359H289.891V488.564H281.395ZM349.249 488.564V450.359H357.745V488.564H349.249ZM355.743 488.564V481.204H376.685V488.564H355.743ZM355.743 472.6V465.511H374.791V472.6H355.743ZM355.743 457.664V450.359H376.415V457.664H355.743ZM416.094 472.816V466.539H424.157C425.852 466.539 427.151 466.106 428.053 465.24C428.991 464.375 429.46 463.202 429.46 461.723C429.46 460.352 429.009 459.216 428.107 458.314C427.205 457.412 425.906 456.961 424.211 456.961H416.094V450.359H425.185C427.71 450.359 429.929 450.846 431.841 451.82C433.753 452.758 435.25 454.075 436.332 455.77C437.415 457.466 437.956 459.414 437.956 461.615C437.956 463.851 437.415 465.818 436.332 467.513C435.25 469.173 433.735 470.471 431.787 471.409C429.839 472.347 427.548 472.816 424.914 472.816H416.094ZM409.6 488.564V450.359H418.096V488.564H409.6ZM430.38 488.564L418.475 472.113L426.267 470.002L440.445 488.564H430.38Z" fill="#7061F0"/>
<defs>
<linearGradient id="paint0_linear_99_9" x1="261.982" y1="223.992" x2="291.289" y2="15.5915" gradientUnits="userSpaceOnUse">
<stop stop-color="#BAD341"/>
<stop offset="1" stop-color="#606D22"/>
</linearGradient>
<linearGradient id="paint1_linear_99_9" x1="275.007" y1="343.388" x2="409.599" y2="150.184" gradientUnits="userSpaceOnUse">
<stop stop-color="#BAD341"/>
<stop offset="1" stop-color="#606D22"/>
</linearGradient>
</defs>
</svg>
