<svg width="310" height="304" viewBox="0 0 310 304" fill="none" xmlns="http://www.w3.org/2000/svg">
<rect x="187.27" y="1.53421" width="24.8002" height="262.23" rx="9.5" transform="rotate(32.7267 187.27 1.53421)" fill="black" stroke="black"/>
<rect x="183.188" y="8.65396" width="24.8002" height="177.935" rx="9.5" transform="rotate(7.07371 183.188 8.65396)" fill="black" stroke="black"/>
<rect x="232.315" y="67.6889" width="24.8002" height="131.032" rx="9.5" transform="rotate(33.6375 232.315 67.6889)" fill="black" stroke="black"/>
<rect x="224.84" y="76.6197" width="24.8002" height="131.032" rx="9.5" transform="rotate(-1.81118 224.84 76.6197)" fill="black" stroke="black"/>
<path d="M66.3209 249.821L56.8898 303.11H48.1488L54.5896 266.613L31.8936 303.11H25.8363L15.9452 266.613L9.50443 303.11H0.763428L10.1945 249.821H19.6256L30.9735 291.609L56.9665 249.821H66.3209Z" fill="black"/>
<path d="M102.422 292.222H80.1099L74.3592 303.11H65.2349L93.7581 249.744H103.879L113.54 303.11H104.339L102.422 292.222ZM101.272 285.398L96.9018 260.325L83.7136 285.398H101.272Z" fill="black"/>
<path d="M149.675 249.821C155.042 249.821 159.106 251.022 161.866 253.425C164.627 255.827 166.007 258.945 166.007 262.779C166.007 263.443 165.904 264.44 165.7 265.769C165.087 269.194 163.502 272.338 160.946 275.2C158.441 278.063 155.017 280.005 150.672 281.028L159.949 303.11H149.521L141.087 281.794H134.34L130.583 303.11H121.842L131.273 249.821H149.675ZM156.729 265.769C156.882 265.003 156.959 264.261 156.959 263.546C156.959 261.348 156.243 259.661 154.812 258.485C153.432 257.258 151.311 256.645 148.448 256.645H138.787L135.567 274.894H145.228C148.499 274.894 151.106 274.076 153.049 272.44C155.042 270.804 156.269 268.581 156.729 265.769Z" fill="black"/>
<path d="M197.124 249.821C202.083 249.821 206.377 250.664 210.006 252.351C213.635 254.038 216.395 256.466 218.287 259.635C220.229 262.805 221.2 266.562 221.2 270.907C221.2 272.9 221.022 274.817 220.664 276.657C219.692 282.076 217.699 286.778 214.683 290.765C211.667 294.753 207.833 297.82 203.182 299.967C198.53 302.062 193.367 303.11 187.693 303.11H170.288L179.719 249.821H197.124ZM188.92 296.439C195.105 296.439 200.166 294.676 204.102 291.149C208.089 287.622 210.619 282.791 211.693 276.657C211.999 274.868 212.153 273.207 212.153 271.673C212.153 266.971 210.773 263.341 208.012 260.785C205.252 258.178 201.214 256.875 195.898 256.875H187.233L180.256 296.439H188.92Z" fill="black"/>
<path d="M241.595 256.568L238.758 272.747H257.16L256.01 279.494H237.608L234.617 296.286H255.32L254.093 303.11H224.65L234.081 249.744H263.524L262.297 256.568H241.595Z" fill="black"/>
<path d="M292.692 249.821C298.06 249.821 302.124 251.022 304.884 253.425C307.644 255.827 309.024 258.945 309.024 262.779C309.024 263.443 308.922 264.44 308.718 265.769C308.104 269.194 306.52 272.338 303.964 275.2C301.459 278.063 298.034 280.005 293.689 281.028L302.967 303.11H292.539L284.105 281.794H277.357L273.6 303.11H264.859L274.29 249.821H292.692ZM299.747 265.769C299.9 265.003 299.977 264.261 299.977 263.546C299.977 261.348 299.261 259.661 297.83 258.485C296.45 257.258 294.328 256.645 291.466 256.645H281.805L278.584 274.894H288.245C291.517 274.894 294.124 274.076 296.066 272.44C298.06 270.804 299.287 268.581 299.747 265.769Z" fill="black"/>
</svg>
